<svg width="62" height="46" viewBox="0 0 62 46" fill="none" xmlns="http://www.w3.org/2000/svg">
<path id="Subtract" fill-rule="evenodd" clip-rule="evenodd" d="M43.937 38.0529L26.7704 41.8232L19.1308 7.03903L50.757 0.0930022C52.966 -0.392137 55.1499 1.00525 55.635 3.21415L57.2513 10.5733L38.7908 14.6278L39.23 16.6275L39.2313 16.6273L40.6631 23.1465L40.6598 23.1473L41.099 25.1471L41.1023 25.1463L42.5341 31.6653L42.532 31.6657L42.9712 33.6655L42.9733 33.6651L43.937 38.0529ZM44.9731 33.2258L45.9368 37.6137L58.3966 34.8771C60.6055 34.392 62.0029 32.208 61.5178 29.9991L61.4325 29.6109L44.9731 33.2258ZM60.9933 27.6111L59.5616 21.0922L43.1021 24.7071L44.5339 31.2261L60.9933 27.6111ZM42.6629 22.7073L59.1224 19.0924L57.6905 12.5731L41.2311 16.1881L42.6629 22.7073ZM4.09539 10.3412L17.131 7.47824L24.7706 42.2624L11.735 45.1254C9.52609 45.6105 7.34214 44.2131 6.857 42.0042L6.30403 39.4865L23.337 35.7455L22.8978 33.7458L5.86482 37.4867L4.43307 30.9677L21.4648 27.2271L21.0256 25.2273L3.99386 28.968L2.56204 22.4487L19.5958 18.7076L19.1566 16.7078L2.12283 20.4489L0.974247 15.2192C0.489109 13.0103 1.88649 10.8264 4.09539 10.3412Z" fill="white"/>
</svg>
