<svg width="102" height="45" viewBox="0 0 102 45" fill="none" xmlns="http://www.w3.org/2000/svg">
<g id="Vector">
<path d="M38.6624 11.6518L40.0085 40.8114L47.6881 39.119L46.3459 9.95857L38.6624 11.6518Z" fill="white"/>
<path d="M27.468 14.1464L24.1414 34.9568L22.7079 32.2415C20.4639 29.0837 15.1624 25.007 9.53346 22.9424L21.5261 44.8486L29.6415 43.0446L35.595 12.3481L27.468 14.1464Z" fill="white"/>
<path d="M16.6835 18.6118C15.8636 16.9997 14.4599 16.7749 12.8425 17.0676L0.949707 19.6901L0.973288 20.2708C10.7181 20.4698 18.0222 24.5163 21.9823 30.4453L16.6835 18.6118Z" fill="white"/>
<path d="M63.0485 11.9402C65.5506 11.3472 67.4901 11.4933 69.0273 11.7488L69.7912 11.9209L69.4981 5.60377C67.8538 5.36984 65.338 5.28475 62.3654 5.94019C54.7822 7.61229 50.2703 12.6009 51.4228 18.0702C52.2557 22.1156 56.605 23.5177 59.8124 24.2202C63.1041 24.9392 64.2984 25.5943 64.5537 26.828C64.9412 28.7136 62.7691 30.0966 60.5644 30.5827C57.4912 31.2603 55.7663 31.1969 53.0168 30.7052L51.9297 30.4743L52.2249 36.9994C54.1928 37.389 57.6545 37.3337 61.1025 36.6105C69.1694 34.8318 73.5885 29.9111 72.368 24.0647C71.7036 20.8655 69.1242 18.8811 64.2521 17.8605C61.2827 17.1489 59.451 16.6446 59.1792 15.3258C58.9239 14.1582 60.0444 12.6026 63.0485 11.9402Z" fill="white"/>
<path d="M89.0148 0.62616L83.0869 1.93334C81.2458 2.33933 79.9856 3.14136 79.5769 5.15062L73.8127 33.4009L81.8698 31.6242C81.8698 31.6242 82.4273 27.8735 82.5596 27.0499C83.4417 26.8554 91.2725 25.1409 92.3874 24.8951C92.8307 25.825 94.2427 28.8958 94.2427 28.8958L101.361 27.3263L89.0148 0.62616ZM83.5108 20.8145C83.7897 19.0629 84.8512 12.2914 84.8512 12.2914C84.8266 12.3773 85.1217 10.5293 85.2871 9.38469L86.3336 11.6921C86.3336 11.6921 89.2699 18.0732 89.8847 19.4089L83.5108 20.8145Z" fill="white"/>
</g>
</svg>
